<svg width="150" height="150" viewBox="0 0 150 150" fill="none" xmlns="http://www.w3.org/2000/svg">
<circle cx="75" cy="75" r="72" fill="white" stroke="#D97E23" stroke-width="6"/>
<path d="M91.6667 108H58.3333C52.82 108 48.3333 103.513 48.3333 98V58C48.3333 52.4867 52.82 48 58.3333 48H91.6667C97.18 48 101.667 52.4867 101.667 58V98C101.667 103.513 97.18 108 91.6667 108ZM58.3333 54.6667C56.4967 54.6667 55 56.1633 55 58V98C55 99.8367 56.4967 101.333 58.3333 101.333H91.6667C93.5033 101.333 95 99.8367 95 98V58C95 56.1633 93.5033 54.6667 91.6667 54.6667H58.3333ZM88.3333 74.6667H61.6667C61.2246 74.6667 60.8007 74.4911 60.4882 74.1785C60.1756 73.866 60 73.442 60 73C60 72.558 60.1756 72.134 60.4882 71.8215C60.8007 71.5089 61.2246 71.3333 61.6667 71.3333H88.3333C88.7754 71.3333 89.1993 71.5089 89.5118 71.8215C89.8244 72.134 90 72.558 90 73C90 73.442 89.8244 73.866 89.5118 74.1785C89.1993 74.4911 88.7754 74.6667 88.3333 74.6667ZM88.3333 64.6667H61.6667C61.2246 64.6667 60.8007 64.4911 60.4882 64.1785C60.1756 63.8659 60 63.442 60 63C60 62.558 60.1756 62.134 60.4882 61.8215C60.8007 61.5089 61.2246 61.3333 61.6667 61.3333H88.3333C88.7754 61.3333 89.1993 61.5089 89.5118 61.8215C89.8244 62.134 90 62.558 90 63C90 63.442 89.8244 63.8659 89.5118 64.1785C89.1993 64.4911 88.7754 64.6667 88.3333 64.6667ZM88.3333 84.6667H61.6667C61.2246 84.6667 60.8007 84.4911 60.4882 84.1785C60.1756 83.866 60 83.442 60 83C60 82.558 60.1756 82.134 60.4882 81.8215C60.8007 81.5089 61.2246 81.3333 61.6667 81.3333H88.3333C88.7754 81.3333 89.1993 81.5089 89.5118 81.8215C89.8244 82.134 90 82.558 90 83C90 83.442 89.8244 83.866 89.5118 84.1785C89.1993 84.4911 88.7754 84.6667 88.3333 84.6667ZM88.3333 94.6667H61.6667C61.2246 94.6667 60.8007 94.4911 60.4882 94.1785C60.1756 93.866 60 93.442 60 93C60 92.558 60.1756 92.134 60.4882 91.8215C60.8007 91.5089 61.2246 91.3333 61.6667 91.3333H88.3333C88.7754 91.3333 89.1993 91.5089 89.5118 91.8215C89.8244 92.134 90 92.558 90 93C90 93.442 89.8244 93.866 89.5118 94.1785C89.1993 94.4911 88.7754 94.6667 88.3333 94.6667Z" fill="#FFA629"/>
<path d="M116.5 71.5C118.489 71.5 120.397 72.2902 121.803 73.6967C123.21 75.1032 124 77.0109 124 79V109C124 110.989 123.21 112.897 121.803 114.303C120.397 115.71 118.489 116.5 116.5 116.5H81.5C79.5109 116.5 77.6032 115.71 76.1967 114.303C74.7902 112.897 74 110.989 74 109V79C74 77.0109 74.7902 75.1032 76.1967 73.6967C77.6032 72.2902 79.5109 71.5 81.5 71.5H116.5ZM99 81.5C95.6848 81.5 92.5054 82.817 90.1612 85.1612C87.817 87.5054 86.5 90.6848 86.5 94C86.5 97.3152 87.817 100.495 90.1612 102.839C92.5054 105.183 95.6848 106.5 99 106.5C102.315 106.5 105.495 105.183 107.839 102.839C110.183 100.495 111.5 97.3152 111.5 94C111.5 90.6848 110.183 87.5054 107.839 85.1612C105.495 82.817 102.315 81.5 99 81.5ZM99 86.5C100.989 86.5 102.897 87.2902 104.303 88.6967C105.71 90.1032 106.5 92.0109 106.5 94C106.5 95.9891 105.71 97.8968 104.303 99.3033C102.897 100.71 100.989 101.5 99 101.5C97.0109 101.5 95.1032 100.71 93.6967 99.3033C92.2902 97.8968 91.5 95.9891 91.5 94C91.5 92.0109 92.2902 90.1032 93.6967 88.6967C95.1032 87.2902 97.0109 86.5 99 86.5ZM116.5 79H114C113.363 79.0007 112.75 79.2447 112.287 79.6821C111.823 80.1195 111.544 80.7174 111.507 81.3535C111.47 81.9896 111.677 82.6159 112.086 83.1046C112.495 83.5932 113.075 83.9072 113.707 83.9825L114 84H116.5C117.137 83.9993 117.75 83.7553 118.213 83.3179C118.677 82.8805 118.956 82.2826 118.993 81.6465C119.03 81.0104 118.823 80.3841 118.414 79.8954C118.005 79.4068 117.425 79.0928 116.793 79.0175L116.5 79Z" fill="#FFA629"/>
</svg>
